<?xml version="1.0" encoding="utf-8"?>
<svg xmlns="http://www.w3.org/2000/svg" viewBox="0 0 1200 1200" xml:space="preserve">
<path d="M1199.6,751.1l-84.1-145.3c0,0,0,0,0,0c0-0.1-0.1-0.1-0.1-0.1c0-0.1-0.1-0.1-0.1-0.2L993.5,457.9L890,292.1l0,0
	c-0.1-0.2-0.3-0.4-0.5-0.6c0,0-0.1-0.1-0.1-0.1c-0.2-0.2-0.4-0.3-0.6-0.4l0,0l-126.9-58.8L805,96.6c0,0,0-0.1,0-0.1c0,0,0,0,0,0
	c0,0,0,0,0,0l18.3-72c0.3-1.2-0.3-2.5-1.4-3.1c-1.1-0.6-2.5-0.3-3.4,0.6l-84.1,95.2c0,0,0,0,0,0.1c0,0,0,0-0.1,0.1
	c-0.1,0.1-0.1,0.1-0.2,0.2l-39.4,60.4L618,87.9c0,0,0,0-0.1-0.1c-0.1-0.1-0.2-0.2-0.2-0.2c-0.1,0-0.1-0.1-0.2-0.1
	c-0.1-0.1-0.2-0.1-0.3-0.2c-0.1,0-0.1-0.1-0.2-0.1c-0.1,0-0.2-0.1-0.3-0.1c-0.1,0-0.1,0-0.2-0.1c-0.1,0-0.3-0.1-0.4-0.1
	c0,0-0.1,0-0.1,0c-0.6,0-1.1,0.2-1.6,0.5c0,0-0.1,0-0.1,0.1c-0.1,0.1-0.2,0.2-0.3,0.3c0,0,0,0,0,0L505,200.4L369.7,198
	c-1.2-0.1-2.3,0.8-2.7,1.9L308.8,382l-145.3,83.7c0,0-0.1,0-0.1,0.1c-0.1,0.1-0.2,0.1-0.3,0.2c-0.1,0-0.1,0.1-0.2,0.1
	c-0.1,0.1-0.2,0.2-0.2,0.2c0,0.1-0.1,0.1-0.1,0.2c-0.1,0.1-0.1,0.2-0.2,0.3c0,0.1-0.1,0.1-0.1,0.2c0,0.1-0.1,0.2-0.1,0.3
	c0,0.1,0,0.1-0.1,0.2l-40,187.1L0.9,768.8c-0.9,0.8-1.1,2.2-0.6,3.3L58.7,889l46.2,198.6c0,0,0,0,0,0.1c0.1,0.2,0.2,0.5,0.3,0.7
	c0,0,0,0.1,0.1,0.1c0.1,0.2,0.2,0.3,0.4,0.5c0,0,0.1,0.1,0.1,0.1c0.2,0.2,0.4,0.3,0.6,0.4c0,0,0.1,0,0.1,0.1
	c0.2,0.1,0.3,0.1,0.5,0.2c0.1,0,0.1,0.1,0.2,0.1L600,1163c0.1,0,0.3,0,0.4,0c0,0,0,0,0,0c0,0,0,0,0,0c0.2,0,0.4,0,0.6-0.1
	c0.1,0,0.1,0,0.2,0c0.1,0,0.3-0.1,0.4-0.1c0.1,0,0.1-0.1,0.2-0.1c0.1-0.1,0.2-0.1,0.3-0.2c0.1,0,0.1-0.1,0.2-0.1
	c0.1,0,0.1-0.1,0.2-0.2c0.1-0.1,0.2-0.2,0.2-0.3c0-0.1,0.1-0.1,0.1-0.2c0.1-0.1,0.1-0.2,0.2-0.3c0-0.1,0.1-0.1,0.1-0.2
	c0-0.1,0.1-0.2,0.1-0.3c0-0.1,0-0.2,0.1-0.2c0-0.1,0-0.2,0-0.3c0-0.1,0-0.1,0-0.2V888.4l42.9-159.1l122.7-23.9l107.5,73.8
	c0,0,0,0,0,0c0,0,0.1,0,0.1,0.1c0.2,0.1,0.3,0.2,0.5,0.3l128.4,44.9l40.9,56.7c0.5,0.8,1.4,1.2,2.4,1.1l56.1-2.4
	c1,0,1.8-0.6,2.3-1.4c0.5-0.8,0.5-1.9,0-2.7l-29.4-53.7L1117,875c0.8,1.1,2.2,1.4,3.5,0.8l54.8-26.9c0.7-0.4,1.3-1,1.5-1.8l23.2-94
	C1200.1,752.5,1200,751.7,1199.6,751.1z M1186.2,739l-22.3,38.7l-106.4,7.3l-33.8-63l68.8-121.2l18.7,8.6L1186.2,739z M425.9,634.8
	l4.2,58.8L183.9,842.9l-5.3-120.3l30.6-60.4l0,0l42.8-84.3L425.9,634.8z M254.6,572.9l40.6-80l112.1-119.7l18.2,255.7L254.6,572.9z
	 M412.7,370.6l178.6,60.9l-23.2,69.9c0,0.1,0,0.2-0.1,0.3c0,0.1,0,0.2-0.1,0.3c0,0.1,0,0.2,0,0.3c0,0.1,0,0.2,0,0.3
	c0,0.1,0,0.1,0,0.2c0,0.1,0,0.2,0.1,0.3c0,0.1,0,0.1,0.1,0.2c0,0.1,0.1,0.2,0.1,0.3c0,0,0,0,0,0l17,31.9L431,628.1L412.7,370.6z
	 M641.8,279.2l-48.8,147l-178.5-60.8l27.6-29.4l146.8-97.6L641.8,279.2z M596.2,237l73.1-7.7l67.2,48.8l-46.1,31.5L596.2,237z
	 M575.7,505.7l170.9,22.4L645.7,636.7L575.7,505.7z M574.4,500l72-217.2l66.8,51.5l35.6,188.5L574.4,500z M719.9,339.4l109.8,84.7
	L811,530.9l-56.3-7.4L719.9,339.4z M834.7,427.9l37.8,29c0.5,0.4,1.1,0.6,1.7,0.6h58.2l62.7,97.2L907.3,666l-91.1-132.7L834.7,427.9
	z M839.8,424.8l65.9-8.7l23.1,35.7h-53.7L839.8,424.8z M999.4,558.2l88,40.3l-68.1,119.9l-107.8-48.8L999.4,558.2z M1103.3,599.7
	l-102.1-46.8l-6.5-84.8L1103.3,599.7z M988.5,460.4l6.4,83.6l-85.2-131.9l-17.2-105.4L988.5,460.4z M885.1,295.5l18.8,115.3
	l-70.4,9.2L695.1,313.2l47.9-32.7c0.1,0,0.1-0.1,0.2-0.2c0.1,0,0.1-0.1,0.2-0.1c0.1-0.1,0.2-0.2,0.3-0.3c0,0,0.1-0.1,0.1-0.1
	c0.1-0.2,0.2-0.3,0.3-0.5c0,0,0,0,0,0l16-41.7L885.1,295.5z M815.1,34.2L800,93.7l-54.3,19.1L815.1,34.2z M739,121.1l59-20.8
	l-42.2,132.5l-15.7,41l-21.2-15.4L739,121.1z M693,184.3c0.6,0.7,1.4,1,2.3,1c0.9-0.1,1.7-0.5,2.1-1.3l34.5-52.9l-18.1,123.6
	l-41.4-30.1l-47.8-120.4L693,184.3z M614.9,94.7L666.1,224l-76.7,8.1l-78.3-30L614.9,94.7z M505.6,206l77.4,29.6l-144.2,95.9
	c-0.2,0.1-0.3,0.3-0.5,0.4l-3.1,3.3L449,205L505.6,206z M371.7,203.6l71.8,1.3L429,341.1l-113.5,38.3L371.7,203.6z M312.3,386.4
	l109.7-37L293.8,486.3l-30-71.9L312.3,386.4z M258.9,417.2l29.4,70.5l-115.5-20.9L258.9,417.2z M167,471.3l121.7,22l-81.4,160.4
	l-48.6-143.8L167,471.3z M156.5,520.7l47.3,140.1l-28.4,56.1l-47.7-61.4L156.5,520.7z M6.2,771.4l118.2-111.2l48.1,61.9L154,748.7
	L23.6,806.3L6.2,771.4z M26.1,811.3L148,757.5L61.7,882.6L26.1,811.3z M64.3,888.6l109.2-158.2l5.1,117l-70.6,229L64.3,888.6z
	 M111.2,1084.7L148,965.3l137.3,145.3L111.2,1084.7z M149.9,959.2l33.8-109.6l247.6-150.1L503,969.8l-209.7,141.1L149.9,959.2z
	 M300.4,1112.8l204.7-137.7l90.4,181.6L300.4,1112.8z M597.6,1148.4l-88-176.7l88-77.5V1148.4z M597.9,886.5L507.7,966l-70.9-267.4
	l203.6,30.6L597.9,886.5z M643.8,724.1l-208.2-31.3l-4.2-58.5L588,540.4l54.7,102.4c0,0,0,0,0.1,0.1c0.1,0.2,0.3,0.4,0.4,0.6
	c0,0,0,0,0,0.1c0.2,0.2,0.4,0.3,0.6,0.4c0,0,0,0,0.1,0l116.9,57.4L643.8,724.1z M649.7,640.6L753.4,529l58.3,7.6l90.8,132.3
	l-132.8,30.6L649.7,640.6z M776.2,703.8l130.7-30.1l106.4,48.1l-135,52L776.2,703.8z M885.9,776.8l133.3-51.3l33,61.6l-45.6,31.9
	L885.9,776.8z M1100,874.4l-50.1,2.2l-38.9-53.9l43.9-30.8L1100,874.4z M1171.7,844.6l-51.6,25.3l-59-79.5l104.6-7.2
	c0.9-0.1,1.8-0.6,2.2-1.4l21.5-37.2l4.8,8.4L1171.7,844.6z"/>
</svg>
