<svg xmlns="http://www.w3.org/2000/svg" viewBox="0 0 600 600" xml:space="preserve">
<path d="M600,407.7l-0.6-69.9l0.4-0.7c0,0,0,0,0,0c0.1-0.1,0.1-0.3,0.2-0.4c0,0,0-0.1,0-0.1c0-0.2,0-0.3,0-0.5c0,0,0,0,0,0
	c0-0.1-0.1-0.3-0.1-0.4c0,0,0,0,0-0.1c-0.1-0.1-0.2-0.3-0.3-0.4c0,0,0,0,0,0c0,0,0,0,0,0c0,0,0,0-0.1-0.1L386.8,169.3c0,0,0,0,0,0
	l-0.1-0.1l-82.1-57l27.7-67.6c0.2-0.5,0.1-1-0.1-1.4L304.3,0.7c-0.4-0.6-1.1-0.8-1.8-0.6c-0.7,0.2-1.1,0.8-1.1,1.5L301,46v0.5
	l-65.4,65.1l-44.2,18.9c-0.1,0-0.2,0.1-0.3,0.2l-34.7,24.2c-0.1,0-0.1,0.1-0.2,0.1l-64.8,61.6c-0.1,0.1-0.1,0.1-0.2,0.2l-91,125.2
	c0,0,0,0,0,0c0,0-0.1,0.1-0.1,0.1c0,0,0,0.1-0.1,0.1c0,0,0,0.1,0,0.1c0,0,0,0.1,0,0.1c0,0,0,0.1,0,0.1c0,0.1,0,0.1,0,0.2
	c0,0,0,0.1,0,0.1c0,0.1,0,0.1,0,0.2c0,0,0,0.1,0,0.1c0,0.1,0,0.1,0.1,0.2c0,0,0,0,0,0.1c0,0,0,0,0,0c0.1,0.1,0.1,0.2,0.2,0.4
	c0,0,0,0,0,0c0.1,0.1,0.1,0.2,0.2,0.2l111.6,87.6l24.1,53.4c0,0,0,0.1,0,0.1c0,0.1,0.1,0.1,0.1,0.2c0,0,0.1,0.1,0.1,0.1
	c0,0,0.1,0.1,0.1,0.1c0,0,0,0,0,0l129.6,114c0,0,0,0,0,0c0.1,0.1,0.2,0.1,0.3,0.2c0,0,0.1,0.1,0.1,0.1c0.2,0.1,0.3,0.1,0.5,0.1
	c0,0,0,0,0,0c0,0,0,0,0,0c0.1,0,0.2,0,0.3,0c0,0,0,0,0,0c0,0,0.1,0,0.1,0c0,0,0.1,0,0.1,0c0,0,0,0,0,0c0.1-0.1,0.2-0.1,0.3-0.2
	c0,0,0,0,0.1-0.1c0.1-0.1,0.2-0.1,0.2-0.2c0,0,0-0.1,0.1-0.1c0.1-0.1,0.1-0.2,0.2-0.3c0,0,0,0,0-0.1c0-0.1,0.1-0.2,0.1-0.3
	c0,0,0,0,0-0.1l9.1-203.6l221.6,8.4l36.9,36.9c0,0,0,0,0,0c0,0,0.1,0.1,0.1,0.1c0,0,0.1,0.1,0.1,0.1c0,0,0,0,0,0c0,0,0,0,0.1,0
	c0.1,0,0.2,0.1,0.3,0.1c0,0,0.1,0,0.1,0c0.1,0,0.2,0,0.4,0c0,0,0,0,0,0c0,0,0,0,0,0c0.1,0,0.2,0,0.3,0c0,0,0.1,0,0.1,0
	c0.1,0,0.2-0.1,0.3-0.1c0,0,0.1,0,0.1,0c0.1-0.1,0.2-0.1,0.3-0.2c0,0,0,0,0,0c0,0,0,0,0,0c0.1-0.1,0.2-0.2,0.2-0.3c0,0,0,0,0,0
	l1.6-2.8l57.9-27.2c0.4-0.2,0.7-0.5,0.8-0.9C599.7,408.8,600,408.3,600,407.7z M537.5,435.2c-0.4,0.2-0.7,0.5-0.8,0.9l-34-34
	l90.8-60.6l-55.2,93.4L537.5,435.2z M500.8,399.6l-66.4-110.5l160,48L500.8,399.6z M591.8,333.1l-159.7-47.9l-42.8-110L591.8,333.1z
	 M304.2,47.1C304.2,47.1,304.2,47.1,304.2,47.1V46l0.3-39.2L329,44.2l-24.8,60.6V47.1z M301,50.9v60.4h-60.7L301,50.9z M302.1,114.4
	l81.1,56.3l-64.7,61.6l-79.1-117.9H302.1z M237.9,117.7l77.8,116l-84.2,19.2L237.9,117.7z M313.1,237.5l-84.6,80.5l2.9-61.9
	L313.1,237.5z M228.3,253.7l-41.4,9.5l18.4-85.5l29.3-57.5L228.3,253.7z M93.7,218.7l64.6-61.4l34.5-24.1l40.4-17.2l-30.8,60.4
	c-0.1,0.1-0.1,0.2-0.1,0.4l-18.8,87.3L6.2,339.2L93.7,218.7z M114.9,430c-0.1-0.2-0.3-0.4-0.5-0.6L4.6,343.3l178-75.4l-45.5,211.6
	L114.9,430z M139.4,483.8l45.5-211.7l79.6,321.8L139.4,483.8z M266.2,587.5l-79.4-321.1l41.4-9.5l-3,64.9c0,0,0,0,0,0
	c0,0.2,0,0.3,0.1,0.4c0,0,0,0.1,0,0.1c0,0.1,0.1,0.3,0.2,0.4c0,0,0,0,0,0l49.4,71L266.2,587.5z M277.3,391.8l-48.5-69.7l88.7-84.5
	l46.4,156.1c0.2,0.7,0.8,1.1,1.5,1.1c0.1,0,0.3,0,0.4-0.1c0.8-0.2,1.3-1.1,1.1-1.9l-46.9-157.7l65.1-61.9l44,113.1l-62.7,108.8
	L277.3,391.8z M430.9,289.6l66.5,110.6L370,395.3L430.9,289.6z M596.3,343l0.6,64.3l-53.5,25.2L596.3,343z"/>
</svg>
