<svg xmlns="http://www.w3.org/2000/svg" viewBox="0 0 600 600" xml:space="preserve">
	<path d="M600,350.7c0-0.1,0-0.3-0.1-0.4c0,0,0,0,0,0l-31.6-110.8c0-0.1-0.1-0.2-0.1-0.3c0,0,0,0,0,0c0,0,0,0,0,0
		c0-0.1-0.1-0.2-0.2-0.2l-66.2-79.4c0,0,0,0,0,0c0,0,0,0,0-0.1c-0.1-0.1-0.1-0.1-0.2-0.2c0,0-0.1-0.1-0.1-0.1L409,103.4
		c-0.1-0.1-0.2-0.1-0.3-0.1c0,0,0,0-0.1,0c0,0,0,0,0,0c0,0,0,0,0,0l-121.9-37L202.6,45c-0.5-0.1-0.9,0-1.3,0.3
		c-0.4,0.3-0.6,0.8-0.5,1.3l4.5,94.8l-60.7,24.7c-0.1,0-0.1,0.1-0.1,0.1c-0.1,0-0.1,0.1-0.2,0.1c0,0,0,0,0,0l-42.1,33
		c-0.1,0.1-0.2,0.2-0.3,0.4L74,242.1l-48.1,71.4L5.7,336.3c-0.2,0.2-0.3,0.5-0.4,0.8L0,364.5c0,0.1,0,0.2,0,0.2c0,0,0,0,0,0
		c0,0,0,0,0,0v19.6c0,0.1,0,0.3,0.1,0.4l17.3,64.4c0.1,0.4,0.4,0.8,0.8,1l39.1,18.9c0,0,0,0,0,0c0.2,0.1,0.4,0.1,0.6,0.1c0,0,0,0,0,0
		h0h23.3c0.6,0,1.2-0.4,1.4-1l11.9-30.3l32.5-30.1l54.9-5.4l36.6,8.6c0.3,0.1,0.7,0,1-0.1l46.6-25.1c0,0,0,0,0.1-0.1
		c0,0,0.1-0.1,0.1-0.1c0,0,0.1-0.1,0.1-0.1c0,0,0.1,0,0.1-0.1c0,0,0,0,0,0c0.1-0.1,0.2-0.3,0.3-0.5c0,0,0,0,0-0.1c0,0,0-0.1,0-0.1
		l16-59.9l5.1,45.8L177.7,552.6c-0.3,0.5-0.3,1.1,0,1.6c0.3,0.5,0.8,0.8,1.3,0.8h394.8c0.7,0,1.3-0.5,1.4-1.2l21.8-90.4
		c0-0.1,0-0.2,0-0.3L600,350.7C600,350.7,600,350.7,600,350.7z M596.4,348.8l-104.8-17.6l74.6-88.1L596.4,348.8z M212.8,335.5
		l-52.4,9.6l-54.5-28.9l35-58.9L212.8,335.5z M144.3,256.6l38.1,2.8l28.7,69.9L144.3,256.6z M186.2,260.6l90.7,33.2l-60.4,40.5
		L186.2,260.6z M186.7,257.5l79.1-58.1l12.6,91.7L186.7,257.5z M268.9,200.3l79.9,65.8l-67.4,25.2L268.9,200.3z M486.8,330.9l-76,9
		l-56-72l114-8.3L486.8,330.9z M471.8,259.2l91.2-17L489.5,329L471.8,259.2z M468.5,420.3l2.9,129.7l-111.1-96.5L468.5,420.3z
		M360,450.4l50.5-106l56.9,73.1L360,450.4z M469.2,414.8l-56.1-72.1l73.7-8.7L469.2,414.8z M355.7,264.8l71.1-75.1l40.5,66.9
		L355.7,264.8z M353.2,263l-5.7-95l76.7,20L353.2,263z M350.2,263.2l-80.3-66.1l74.6-29L350.2,263.2z M352,269.3l55.5,71.3
		l-114.9,28.2L352,269.3z M407.5,343.8l-50.7,106.3l-64.6-78L407.5,343.8z M356,456.8l7.8,95.1h-83.9L356,456.8z M277.5,550
		l-22.8-116.5l99.6,20.4L277.5,550z M358.9,456.4l109.9,95.5h-102L358.9,456.4z M471.5,420.6l119.7,47.6l-116.8,82.4L471.5,420.6z
		M471.7,417.3l17.8-81.6l100.2,128.6L471.7,417.3z M564.1,238.8L472.1,256l29.2-92.4L564.1,238.8z M469.5,254.3L429.3,188l69.1-25
		L469.5,254.3z M497.2,160.2l-69.1,25l-17.6-77.3L497.2,160.2z M425.1,185.1l-76.2-19.9l58.5-57.5L425.1,185.1z M405.4,105.4
		l-59.2,58.1l-56.3-93.2L405.4,105.4z M287.3,72.1l56.3,93.1l-74.8,29.1L287.3,72.1z M265.9,193.7L209,142.4l75.3-70.6L265.9,193.7z
		M203.8,48.5l79.5,20l-75.3,70.5L203.8,48.5z M206.5,144.2l54.9,49.5l-111.3-26.6L206.5,144.2z M263.3,197.4l-79.2,58.2l-36.4-85.8
		L263.3,197.4z M104.1,201.7l40.4-31.7l36.6,86.2l-40.3-3l-63.1-11.4L104.1,201.7z M75.9,244.7l62.3,11.2L104,313.5l-27.4-67.9
		C76.4,245.2,76.1,244.9,75.9,244.7L75.9,244.7z M74.1,247.4l27.4,67.9l-71.6-2.2L74.1,247.4z M8.1,338.1l19.6-22l72.9,2.2
		l-35.9,44.2l-61.4,0.8L8.1,338.1z M56.4,465.4L20,447.8L3,384.3V368l54.1,44.7L56.4,465.4z M57.5,409.1L5.7,366.3l58-0.7L57.5,409.1
		z M92.2,436c-0.2,0.2-0.3,0.4-0.4,0.6l-11.7,29.7H59.4l0.7-54.1l6.7-47.4l36.2-44.5l21.6,85.8L92.2,436z M126.8,402.5L106,319.8
		l52,27.5L126.8,402.5z M218.6,408l-36.3-8.5c-0.2,0-0.3,0-0.5,0l-52.7,5.2l32-56.5l54.2-10l47.5,45.9L218.6,408z M264.6,381.6
		l-46.4-44.8l60.9-40.8l2.9,20.8L264.6,381.6z M284.9,316.7C284.9,316.7,284.9,316.7,284.9,316.7
		C284.9,316.7,284.9,316.7,284.9,316.7l-3.1-22.3l66.5-24.8l-57.9,97L284.9,316.7z M289.7,373.7l63.5,76.7l-97.9-20L289.7,373.7z
		M252.1,435.6l22.7,116.3h-93.2L252.1,435.6z M572.5,551.9h-94.7L592,471.4L572.5,551.9z M594,462.9l-0.4,1.5l-101.3-130L597,352
		L594,462.9z"/>
</svg>
