<svg xmlns="http://www.w3.org/2000/svg" viewBox="0 0 600 600" xml:space="preserve">
<path id="Path" d="M600,408l-0.6-70.3l0.5-0.8c0,0,0-0.1,0.1-0.1c0,0,0-0.1,0-0.1c0-0.1,0-0.2,0-0.3c0,0,0-0.1,0-0.1
	c0-0.1-0.1-0.2-0.1-0.3c0,0,0-0.1-0.1-0.1c0-0.1-0.1-0.1-0.1-0.2c0,0,0,0,0,0c0,0,0,0,0,0L386.5,169.5c0,0,0,0,0,0l-0.1-0.1
	l-82.7-57.4l27.9-68.3c0.1-0.3,0.1-0.6-0.1-0.9L303.7,0.4c-0.2-0.3-0.7-0.5-1.1-0.4c-0.4,0.1-0.7,0.5-0.7,0.9l-0.3,44.5v0.7
	l-65.8,65.5l-44.4,19c-0.1,0-0.1,0.1-0.2,0.1L156.5,155c0,0-0.1,0.1-0.1,0.1l-64.9,61.7c0,0-0.1,0.1-0.1,0.1L0.2,342.4
	c0,0,0,0.1,0,0.1c0,0.1-0.1,0.1-0.1,0.2c0,0.1,0,0.1,0,0.2c0,0.1,0,0.1,0,0.2c0,0.1,0,0.1,0,0.2c0,0,0,0.1,0,0.1c0,0,0,0,0,0.1
	c0,0,0,0.1,0.1,0.1c0,0.1,0.1,0.1,0.2,0.2c0,0,0,0,0,0l112,87.9l24.2,53.6c0,0,0,0,0,0.1c0,0.1,0.1,0.1,0.1,0.2c0,0,0,0.1,0.1,0.1
	l129.9,114.3c0,0,0,0,0,0c0.1,0.1,0.1,0.1,0.2,0.1c0,0,0.1,0,0.1,0c0.1,0,0.2,0.1,0.3,0.1c0,0,0,0,0,0c0,0,0,0,0,0c0,0,0,0,0,0
	c0.1,0,0.1,0,0.2,0c0,0,0,0,0.1,0c0,0,0,0,0.1,0c0.1,0,0.1-0.1,0.1-0.1c0,0,0,0,0.1,0c0.1-0.1,0.2-0.1,0.2-0.2c0,0,0,0,0-0.1
	c0-0.1,0.1-0.2,0.1-0.2c0,0,0-0.1,0-0.1c0,0,0,0,0-0.1l9.1-204.6l223,8.5l37.1,37.2c0,0,0.1,0,0.1,0.1c0,0,0.1,0.1,0.1,0.1
	c0,0,0.1,0,0.1,0c0,0,0.1,0,0.1,0c0.1,0,0.2,0.1,0.3,0.1c0.1,0,0.2,0,0.3-0.1c0,0,0,0,0.1,0c0.1,0,0.2-0.1,0.3-0.2c0,0,0,0,0,0
	c0,0,0,0,0,0c0.1-0.1,0.1-0.1,0.1-0.2l1.7-2.9l58.2-27.4c0.3-0.2,0.5-0.5,0.5-0.8C599.7,408.7,600,408.4,600,408z M538.3,436
	c-0.5,0.2-0.7,0.8-0.5,1.3c0.1,0.1,0.1,0.2,0.2,0.3l-0.2,0.4l-35.7-35.8l94-62.7l-56.9,96.1L538.3,436z M276.9,392.6l-49.1-70.5
	l90.1-85.7l46.8,157.5c0.1,0.4,0.5,0.7,0.9,0.7c0.1,0,0.2,0,0.3,0c0.5-0.1,0.8-0.7,0.6-1.2l-47.1-158.4l66.2-63l44.6,114.5L367,396
	L276.9,392.6z M237.2,115.4L316.8,234l-86.1,19.7L237.2,115.4z M228.8,254.1l-43,9.8l18.7-86.8l30.7-60.3L228.8,254.1z M315.2,236.3
	l-87.6,83.4l3-64L315.2,236.3z M431.2,288.3L499,401l-129.9-4.9L431.2,288.3z M501,400.7l-67.7-112.6L596.4,337L501,400.7z
	 M431.9,285.7L388,173.1l207.4,161.7L431.9,285.7z M384.4,170.4l-65.9,62.8l-80.3-119.7h64.2L384.4,170.4z M303.6,45.5l0.3-41.4
	l25.9,39.5l-26.2,64V45.5z M301.7,111.5h-63l63-62.7V111.5z M92.8,218.1l64.8-61.6l34.6-24.2l42.1-18l-31.6,62
	c0,0.1-0.1,0.1-0.1,0.2l-18.9,87.8L3.7,340.8L92.8,218.1z M113.7,430.2l-110.9-87l180.5-76.5L137,481.8L114,430.6
	C113.9,430.4,113.8,430.3,113.7,430.2z M184.7,269.3l80.9,327L138.4,484.5L184.7,269.3z M266.6,592.5l-80.8-326.6l43-9.8l-3.1,65.9
	c0,0,0,0,0,0c0,0,0,0,0,0.1c0,0.1,0,0.2,0,0.3c0,0,0,0.1,0,0.1c0,0,0,0.1,0.1,0.1l49.7,71.3L266.6,592.5z M542.3,434.2l55.2-93.3
	l0.6,67.1c0,0-0.1,0-0.1,0L542.3,434.2z"/>
</svg>
