<svg xmlns="http://www.w3.org/2000/svg" viewBox="0 0 600 600" xml:space="preserve">
<path  d="M599.8,379.4l-42-72.5l0,0c0,0,0,0,0,0c0,0,0,0,0-0.1L496.7,233L445,150.3l0,0c0-0.1-0.1-0.2-0.2-0.3l0,0
	c-0.1-0.1-0.2-0.1-0.3-0.2l0,0l-63.4-29.4l21.5-67.7v0l0,0l0,0l9.1-35.9c0.1-0.6-0.1-1.2-0.7-1.5c-0.5-0.3-1.2-0.1-1.7,0.3l-42,47.5
	c0,0,0,0,0,0c0,0,0,0,0,0s0,0-0.1,0.1l-19.7,30.1l-38.3-45c0,0,0,0,0,0s-0.1-0.1-0.1-0.1c0,0,0,0-0.1,0c0,0-0.1,0-0.1-0.1
	c0,0,0,0-0.1,0c0,0-0.1,0-0.1,0s0,0-0.1,0c0,0-0.1,0-0.2,0h0c-0.3,0-0.5,0.1-0.8,0.2c0,0,0,0,0,0c0,0-0.1,0.1-0.1,0.1l0,0
	l-54.5,56.2l-67.6-1.2c-0.6,0-1.1,0.4-1.3,0.9l-29.1,90.9l-72.6,41.8c0,0-0.1,0-0.1,0c-0.1,0-0.1,0-0.2,0.1c-0.1,0-0.1,0-0.1,0
	c-0.1,0-0.1,0.1-0.1,0.1c0,0-0.1,0-0.1,0.1c-0.1,0-0.1,0.1-0.1,0.1c0,0-0.1,0-0.1,0.1s-0.1,0.1-0.1,0.1s0,0-0.1,0.1l-20,93.4
	l-60.6,57c-0.4,0.4-0.5,1.1-0.3,1.6l29.2,58.4l23.1,99.1c0,0,0,0,0,0c0,0.1,0.1,0.2,0.2,0.3c0,0,0,0,0,0c0,0.1,0.1,0.1,0.2,0.2l0,0
	c0.1,0.1,0.2,0.1,0.3,0.2c0,0,0,0,0,0c0.1,0,0.2,0,0.2,0.1c0,0,0,0,0.1,0L300,585c0,0,0.1,0,0.2,0l0,0l0,0c0.1,0,0.2,0,0.3,0
	c0,0,0,0,0.1,0c0,0,0.1,0,0.2,0c0,0,0,0,0.1,0c0,0,0.1,0,0.1-0.1c0,0,0,0,0.1,0c0,0,0,0,0.1-0.1c0,0,0.1-0.1,0.1-0.1c0,0,0,0,0-0.1
	c0,0,0-0.1,0.1-0.1c0,0,0,0,0-0.1c0,0,0-0.1,0-0.1s0-0.1,0-0.1c0,0,0-0.1,0-0.1s0,0,0-0.1V447.9l21.4-79.4l61.3-11.9l53.7,36.8l0,0
	c0,0,0,0,0,0c0.1,0,0.1,0.1,0.2,0.1l64.2,22.4l20.4,28.3c0.2,0.4,0.7,0.6,1.2,0.5l28-1.2c0.5,0,0.9-0.3,1.2-0.7
	c0.2-0.4,0.2-0.9,0-1.3l-14.7-26.8l19.6,26.4c0.4,0.5,1.1,0.7,1.8,0.4l27.4-13.4c0.3-0.2,0.7-0.5,0.8-0.9l11.6-46.9
	C600,380.1,600,379.7,599.8,379.4z M593.1,373.4l-11.1,19.3l-53.2,3.6l-16.9-31.4l34.4-60.5l9.3,4.3L593.1,373.4z M212.9,321.3
	l2.1,29.4L91.9,425.2l-2.6-60l15.3-30.1l0,0l21.4-42.1L212.9,321.3z M127.3,290.4l20.3-39.9l56-59.7l9.1,127.6L127.3,290.4z
	 M206.3,189.5l89.3,30.4L284,254.8c0,0,0,0.1,0,0.1c0,0,0,0.1,0,0.1c0,0,0,0.1,0,0.1c0,0,0,0.1,0,0.1s0,0,0,0.1c0,0,0,0.1,0,0.1
	c0,0,0,0,0,0.1c0,0,0,0.1,0,0.1l0,0l8.5,15.9L215.5,318L206.3,189.5z M320.9,143.8l-24.4,73.4l-89.2-30.3l13.8-14.7l73.4-48.7
	L320.9,143.8z M298.1,122.8l36.5-3.8l33.6,24.4l-23,15.7L298.1,122.8z M287.8,256.9l85.4,11.2l-50.4,54.2L287.8,256.9z M287.2,254.1
	l36-108.4l33.4,25.7l17.8,94.1L287.2,254.1z M359.9,173.9l54.9,42.3l-9.3,53.3l-28.1-3.7L359.9,173.9z M417.3,218.1l18.9,14.5
	c0.2,0.2,0.5,0.3,0.9,0.3h29.1l31.3,48.5l-43.9,55.6l-45.5-66.2L417.3,218.1z M419.9,216.5l32.9-4.3l11.5,17.8h-26.8L419.9,216.5z
	 M499.7,283.1l44,20.1l-34,59.8l-53.9-24.4L499.7,283.1z M551.6,303.8l-51-23.4l-3.2-42.3L551.6,303.8z M494.2,234.3l3.2,41.7
	l-42.6-65.8l-8.6-52.6L494.2,234.3z M442.5,152l9.4,57.6l-35.2,4.6l-69.2-53.3l23.9-16.3c0,0,0,0,0.1-0.1c0,0,0,0,0.1,0
	c0,0,0.1-0.1,0.1-0.1l0,0c0-0.1,0.1-0.1,0.1-0.2l0,0l8-20.8L442.5,152z M407.5,21.5L400,51.2l-27.1,9.5L407.5,21.5z M369.5,64.9
	L399,54.5l-21.1,66.1l-7.8,20.5l-10.6-7.7L369.5,64.9z M346.5,96.5c0.3,0.3,0.7,0.5,1.1,0.5c0.5,0,0.9-0.2,1-0.6l17.2-26.4l-9,61.7
	l-20.7-15l-23.9-60.1L346.5,96.5z M307.4,51.7l25.6,64.5l-38.3,4l-39.1-15L307.4,51.7z M252.8,107.3l38.7,14.8l-72.1,47.9
	c-0.1,0-0.1,0.1-0.2,0.2l-1.6,1.6l6.9-65L252.8,107.3z M185.8,106.1l35.9,0.6l-7.2,68l-56.7,19.1L185.8,106.1z M156.1,197.4
	l54.8-18.5l-64.1,68.3l-15-35.9L156.1,197.4z M129.4,212.7l14.7,35.2l-57.7-10.4L129.4,212.7z M83.5,239.7l60.8,11l-40.7,80.1
	L79.3,259L83.5,239.7z M78.2,264.4l23.6,69.9l-14.2,28l-23.8-30.6L78.2,264.4z M3.1,389.5L62.2,334l24,30.9L77,378.2l-65.2,28.8
	L3.1,389.5z M13,409.4L74,382.6L30.8,445L13,409.4z M32.1,448l54.6-79l2.5,58.4L54,541.8L32.1,448z M55.6,545.9L74,486.3l68.6,72.5
	L55.6,545.9z M74.9,483.3l16.9-54.7l123.8-74.9l35.8,134.9L146.6,559L74.9,483.3z M150.2,559.9l102.3-68.7l45.2,90.6L150.2,559.9z
	 M298.8,577.7l-44-88.2l44-38.7V577.7z M298.9,447l-45.1,39.7l-35.4-133.5l101.8,15.3L298.9,447z M321.9,365.9l-104.1-15.6
	l-2.1-29.2l78.3-46.9l27.3,51.1c0,0,0,0,0,0c0,0.1,0.1,0.2,0.2,0.3c0,0,0,0,0,0c0.1,0.1,0.2,0.1,0.3,0.2c0,0,0,0,0,0l58.4,28.7
	L321.9,365.9z M324.8,324.2l51.8-55.7l29.1,3.8l45.4,66l-66.4,15.3L324.8,324.2z M388.1,355.8l65.3-15l53.2,24l-67.5,26L388.1,355.8
	z M442.9,392.2l66.6-25.6l16.5,30.7l-22.8,15.9L442.9,392.2z M550,440.9l-25,1.1l-19.4-26.9l21.9-15.4L550,440.9z M585.8,426.1
	L560,438.7L530.5,399l52.3-3.6c0.5,0,0.9-0.3,1.1-0.7l10.8-18.6l2.4,4.2L585.8,426.1z"/>
</svg>
