<?xml version="1.0" encoding="utf-8"?>
<!-- Generator: Adobe Illustrator 27.7.0, SVG Export Plug-In . SVG Version: 6.00 Build 0)  -->
<svg version="1.1" id="Path" xmlns="http://www.w3.org/2000/svg" xmlns:xlink="http://www.w3.org/1999/xlink" x="0px" y="0px"
	 viewBox="0 0 240 240" style="enable-background:new 0 0 240 240;" xml:space="preserve">
<path d="M197.9,140.1l-1.1-1.3l-9.6-16.4c0,0,0,0,0,0c0,0,0,0,0-0.1l-16-18.8l-13.8-22c0-0.1-0.1-0.1-0.2-0.2l-16.1-8.8
	c-0.1-0.1-0.3-0.1-0.4,0c-0.1,0.1-0.2,0.2-0.3,0.3l-2.4,6.9l-4,6.1c-0.1,0.2-0.1,0.5,0.1,0.7l16,12.4c0.1,0.1,0.3,0.1,0.4,0.1
	l8.8-1.6l3.3,5l9,13.2l-12.1,14.1l-18.1,4.1c-0.2,0-0.3,0.2-0.4,0.4c0,0.2,0.1,0.4,0.2,0.5l14.6,9.3c0,0,0.1,0,0.1,0.1l16.4,5.6
	l5.4,8c0.1,0.1,0.2,0.2,0.4,0.2c0,0,0,0,0,0l7.4-0.6c0.2,0,0.3-0.1,0.4-0.3c0.1-0.2,0.1-0.3,0-0.5l-3.6-5.8l5,5.9
	c0.1,0.2,0.4,0.2,0.6,0.1l6.6-3.2c0,0,0,0,0,0c0,0,0.1,0,0.1-0.1c0,0,0,0,0,0c0,0,0-0.1,0.1-0.1c0,0,0,0,0-0.1c0,0,0,0,0,0l3.2-12.9
	C198.1,140.4,198,140.2,197.9,140.1z M184.7,156.6l-6.3,0.5l-5.3-7.9c-0.1-0.1-0.1-0.2-0.3-0.2l-16.5-5.6l-13.5-8.7l17.1-3.8
	c0.1,0,0.2-0.1,0.3-0.2l12.4-14.6c0.1-0.2,0.2-0.4,0-0.6l-9.2-13.5l-3.4-5.2c-0.1-0.2-0.3-0.3-0.5-0.2l-8.9,1.6l-15.5-12l3.7-5.7
	c0,0,0-0.1,0.1-0.1l2.3-6.4l15.5,8.4l13.8,21.9l14.7,17.3l-1.4-0.6c-0.2-0.1-0.5,0-0.6,0.2l-8.4,15.3c-0.1,0.1-0.1,0.3,0,0.4
	l3.3,8.7c0,0,0,0,0,0.1c0,0,0,0,0,0L184.7,156.6z M187.9,155.9l-8.5-10.1l13.2-0.6l1.2,7.9L187.9,155.9z M194.5,150.8l-1-6.2
	c0-0.2-0.2-0.4-0.5-0.4c0,0,0,0,0,0l-14.3,0.7l-3.1-8.2l8.1-14.7l2.7,1.1l9.6,16.2c0,0,0,0,0,0.1l0.9,1.1L194.5,150.8z"/>
</svg>
