<?xml version="1.0" encoding="utf-8"?>
<!-- Generator: Adobe Illustrator 27.7.0, SVG Export Plug-In . SVG Version: 6.00 Build 0)  -->
<svg version="1.1" id="Horse" xmlns="http://www.w3.org/2000/svg" xmlns:xlink="http://www.w3.org/1999/xlink" x="0px" y="0px"
	 viewBox="0 0 1920 1920" style="enable-background:new 0 0 1920 1920;" xml:space="preserve">
<path d="M1919.4,1183.2l-134.6-232.3c0,0,0,0,0,0c0-0.1-0.1-0.2-0.2-0.2c-0.1-0.1-0.1-0.2-0.2-0.3l-194.8-235.9L1424,449.2l0,0
	c-0.2-0.3-0.5-0.6-0.8-0.9c-0.1-0.1-0.1-0.1-0.2-0.1c-0.3-0.3-0.6-0.5-1-0.6l0,0l-203.1-94l69-216.8c0-0.1,0-0.1,0.1-0.2
	c0,0,0,0,0,0c0,0,0,0,0,0l29.3-115.2c0.5-2-0.4-4.1-2.2-5c-1.8-1-4-0.6-5.4,1l-134.6,152.2c0,0,0,0.1-0.1,0.1c0,0-0.1,0.1-0.1,0.1
	c-0.1,0.1-0.2,0.2-0.2,0.3l-63.1,96.5L988.7,122.7c0,0-0.1-0.1-0.1-0.1c-0.1-0.1-0.3-0.3-0.4-0.4c-0.1-0.1-0.2-0.2-0.3-0.2
	c-0.1-0.1-0.3-0.2-0.5-0.3c-0.1-0.1-0.2-0.1-0.3-0.2c-0.2-0.1-0.3-0.1-0.5-0.2c-0.1,0-0.2-0.1-0.3-0.1c-0.2-0.1-0.5-0.1-0.7-0.1
	c-0.1,0-0.1,0-0.2,0c-0.9,0-1.8,0.2-2.6,0.8c0,0-0.1,0.1-0.1,0.1c-0.2,0.1-0.4,0.3-0.5,0.5c0,0,0,0,0,0L808,302.6l-216.5-3.9
	c-2-0.1-3.7,1.2-4.3,3.1l-93.1,291.1L261.6,726.8c0,0-0.1,0.1-0.1,0.1c-0.2,0.1-0.3,0.2-0.4,0.3c-0.1,0.1-0.2,0.2-0.3,0.2
	c-0.1,0.1-0.2,0.3-0.4,0.4c-0.1,0.1-0.2,0.2-0.2,0.3c-0.1,0.1-0.2,0.3-0.3,0.5c-0.1,0.1-0.1,0.2-0.2,0.3c-0.1,0.2-0.1,0.3-0.2,0.5
	c0,0.1-0.1,0.2-0.1,0.3l-64.1,299.2l-194,182.5c-1.4,1.3-1.8,3.5-0.9,5.2l93.4,186.9l74,317.6c0,0,0,0.1,0,0.1
	c0.1,0.4,0.2,0.8,0.4,1.1c0,0.1,0.1,0.1,0.1,0.2c0.2,0.3,0.4,0.6,0.6,0.8c0,0,0.1,0.1,0.1,0.1c0.3,0.3,0.6,0.5,1,0.6
	c0.1,0,0.2,0.1,0.2,0.1c0.3,0.1,0.5,0.2,0.8,0.2c0.1,0,0.2,0.1,0.3,0.1L960,1841.7c0.2,0,0.4,0,0.7,0c0,0,0,0,0,0c0,0,0,0,0,0
	c0.3,0,0.6,0,0.9-0.1c0.1,0,0.2,0,0.3-0.1c0.2-0.1,0.4-0.1,0.7-0.2c0.1,0,0.2-0.1,0.3-0.1c0.2-0.1,0.3-0.2,0.4-0.3
	c0.1-0.1,0.2-0.1,0.3-0.2c0.1-0.1,0.2-0.2,0.3-0.2c0.1-0.1,0.3-0.3,0.4-0.4c0.1-0.1,0.1-0.2,0.2-0.3c0.1-0.1,0.2-0.3,0.3-0.5
	c0.1-0.1,0.1-0.2,0.2-0.4c0.1-0.2,0.1-0.3,0.2-0.5c0-0.1,0.1-0.2,0.1-0.4c0-0.2,0-0.4,0.1-0.5c0-0.1,0-0.2,0-0.2v-434.7l68.7-254.4
	l196.3-38.2l172,118c0,0,0,0,0,0c0.1,0,0.1,0.1,0.2,0.1c0.3,0.2,0.5,0.3,0.8,0.4l205.4,71.8l65.5,90.6c0.9,1.2,2.3,1.9,3.8,1.8
	l89.7-3.9c1.5-0.1,2.9-0.9,3.7-2.3c0.8-1.3,0.8-3,0-4.3l-47-85.9l63,84.8c1.3,1.7,3.6,2.3,5.5,1.3l87.8-42.9c1.2-0.6,2-1.6,2.4-2.9
	l37.1-150.3C1920.1,1185.3,1920,1184.1,1919.4,1183.2z M1897.9,1163.8l-35.7,61.9l-170.3,11.6l-54-100.7l110.1-193.8l29.9,13.7
	L1897.9,1163.8z M681.5,997.2l6.7,94l-394,238.7l-8.4-192.4l49-96.6l0,0l68.4-134.8L681.5,997.2z M407.4,898.1l64.9-127.8
	l179.4-191.5l29.1,408.8L407.4,898.1z M660.3,574.7l285.8,97.3L909,783.9c0,0.1-0.1,0.3-0.1,0.4c0,0.1-0.1,0.3-0.1,0.4
	c0,0.2,0,0.3,0,0.5c0,0.1,0,0.3,0,0.4c0,0.1,0,0.2,0.1,0.3c0,0.2,0.1,0.4,0.1,0.6c0,0.1,0.1,0.2,0.1,0.3c0.1,0.2,0.1,0.4,0.2,0.5
	c0,0,0,0,0,0.1l27.3,51l-246.9,148L660.3,574.7z M1026.9,428.5l-78,235.1l-285.6-97.3l44.1-47l234.8-156L1026.9,428.5z M954,361.1
	l116.9-12.3l107.6,78.1l-73.8,50.4L954,361.1z M921.2,790.8l273.4,35.8l-161.5,173.6L921.2,790.8z M919.1,781.6l115.3-347.3
	l106.9,82.4l56.9,301.4L919.1,781.6z M1151.9,524.9l175.7,135.4l-30,170.8l-90.1-11.8L1151.9,524.9z M1335.6,666.4l60.5,46.3
	c0.8,0.6,1.7,0.9,2.7,0.9h93.1l100.4,155.3l-140.6,178.2L1306,835L1335.6,666.4z M1343.7,661.4l105.5-13.9l36.9,57.1h-85.9
	L1343.7,661.4z M1599,874.7l140.8,64.5l-108.9,191.7l-172.5-78L1599,874.7z M1765.2,941l-163.3-74.8l-10.4-135.6L1765.2,941z
	 M1581.6,718.4l10.3,133.7l-136.2-210.9l-27.5-168.5L1581.6,718.4z M1416.2,454.5l30.1,184.4l-112.6,14.8L1112.1,483l76.6-52.3
	c0.1-0.1,0.2-0.2,0.3-0.3c0.1-0.1,0.2-0.1,0.3-0.2c0.2-0.2,0.3-0.3,0.4-0.5c0.1-0.1,0.1-0.1,0.2-0.2c0.2-0.3,0.3-0.5,0.4-0.8
	c0,0,0,0,0,0l25.6-66.6L1416.2,454.5z M1304.1,36.9l-24.1,95.1l-86.9,30.6L1304.1,36.9z M1182.4,175.7l94.4-33.2l-67.5,211.9
	l-25.2,65.5l-34-24.7L1182.4,175.7z M1108.7,276.8c0.9,1.1,2.3,1.6,3.7,1.5c1.4-0.1,2.7-0.8,3.4-2l55.2-84.6l-29,197.6l-66.3-48.1
	l-76.4-192.5L1108.7,276.8z M983.8,133.6l82.1,206.8L943,353.3l-125.3-48L983.8,133.6z M809,311.5l123.8,47.4L702.1,512.2
	c-0.3,0.2-0.5,0.4-0.8,0.7l-5,5.3l22.2-208.3L809,311.5z M594.7,307.7l114.9,2.1l-23.2,217.9l-181.6,61.3L594.7,307.7z M499.7,600
	l175.5-59.2L470,759.6l-48-115L499.7,600z M414.3,649.1l47.1,112.7l-184.8-33.5L414.3,649.1z M267.3,735.7L461.9,771l-130.2,256.5
	L254,797.7L267.3,735.7z M250.4,814.7l75.7,224l-45.5,89.7l-76.3-98.2L250.4,814.7z M9.9,1215.6l189-177.9l76.9,99l-29.4,42.6
	l-208.7,92L9.9,1215.6z M41.7,1279.3l195.1-86l-138.1,200L41.7,1279.3z M102.8,1402.9L277.5,1150l8.2,187l-112.9,366.1L102.8,1402.9
	z M177.9,1716.5l58.9-190.9l219.7,232.3L177.9,1716.5z M239.8,1515.9l54.1-175.3l396.2-240l114.7,432.3l-335.5,225.6L239.8,1515.9z
	 M480.6,1761.5l327.6-220.2l144.7,290.4L480.6,1761.5z M956.2,1818.4l-140.8-282.6l140.8-124V1818.4z M956.7,1399.6l-144.4,127.1
	L698.9,1099l325.8,49L956.7,1399.6z M1030.1,1139.9L697,1089.8l-6.7-93.5l250.4-150.1l87.5,163.7c0,0,0.1,0.1,0.1,0.1
	c0.2,0.3,0.4,0.6,0.7,0.9c0,0,0,0.1,0.1,0.1c0.3,0.3,0.6,0.5,1,0.7c0,0,0.1,0.1,0.1,0.1l187.1,91.8L1030.1,1139.9z M1039.5,1006.4
	l166-178.5l93.3,12.2l145.3,211.6l-212.5,48.9L1039.5,1006.4z M1241.9,1107.4l209-48.1l170.3,77l-216.1,83.2L1241.9,1107.4z
	 M1417.5,1224.2l213.2-82.1l52.8,98.5l-72.9,51.1L1417.5,1224.2z M1760,1380.3l-80.2,3.5l-62.3-86.1l70.2-49.2L1760,1380.3z
	 M1874.7,1332.6l-82.6,40.4l-94.4-127.1l167.4-11.4c1.5-0.1,2.8-0.9,3.5-2.2l34.4-59.5l7.7,13.4L1874.7,1332.6z"/>
</svg>
