<?xml version="1.0" encoding="utf-8"?>
<svg xmlns="http://www.w3.org/2000/svg" viewBox="0 0 900 900" xml:space="preserve">
<path d="M881.7,564.5L821.2,460c0,0,0,0,0,0c0,0,0-0.1-0.1-0.1c0,0-0.1-0.1-0.1-0.1l-87.7-106.2l-74.5-119.4l0,0
	c-0.1-0.2-0.2-0.3-0.3-0.4c0,0,0,0-0.1-0.1c-0.1-0.1-0.3-0.2-0.4-0.3l0,0L566.5,191l31.1-97.6c0,0,0-0.1,0-0.1c0,0,0,0,0,0
	c0,0,0,0,0,0l13.2-51.8c0.2-0.9-0.2-1.8-1-2.3c-0.8-0.4-1.8-0.2-2.4,0.4l-60.6,68.5c0,0,0,0,0,0c0,0,0,0,0,0c0,0-0.1,0.1-0.1,0.1
	l-28.4,43.5l-55.3-64.7c0,0,0,0,0,0c-0.1-0.1-0.1-0.1-0.2-0.2c0,0-0.1-0.1-0.1-0.1c-0.1,0-0.1-0.1-0.2-0.1c0,0-0.1-0.1-0.1-0.1
	c-0.1,0-0.2-0.1-0.2-0.1c0,0-0.1,0-0.1,0c-0.1,0-0.2,0-0.3,0c0,0-0.1,0-0.1,0c-0.4,0-0.8,0.1-1.2,0.3c0,0,0,0-0.1,0
	c-0.1,0.1-0.2,0.1-0.2,0.2c0,0,0,0,0,0l-78.4,81.1l-97.4-1.7c-0.9-0.1-1.7,0.5-1.9,1.4l-41.9,131.1l-104.6,60.2c0,0,0,0-0.1,0
	c-0.1,0-0.1,0.1-0.2,0.1c0,0-0.1,0.1-0.1,0.1c-0.1,0.1-0.1,0.1-0.2,0.2c0,0-0.1,0.1-0.1,0.1c0,0.1-0.1,0.1-0.1,0.2
	c0,0-0.1,0.1-0.1,0.1c0,0.1-0.1,0.2-0.1,0.2c0,0,0,0.1,0,0.1l-28.8,134.7l-87.3,82.2c-0.6,0.6-0.8,1.6-0.4,2.3l42,84.1l33.3,143
	c0,0,0,0,0,0c0,0.2,0.1,0.3,0.2,0.5c0,0,0,0.1,0.1,0.1c0.1,0.1,0.2,0.3,0.3,0.4c0,0,0,0,0.1,0.1c0.1,0.1,0.3,0.2,0.4,0.3
	c0,0,0.1,0,0.1,0c0.1,0,0.2,0.1,0.4,0.1c0,0,0.1,0,0.1,0L450,861c0.1,0,0.2,0,0.3,0c0,0,0,0,0,0c0,0,0,0,0,0c0.1,0,0.3,0,0.4,0
	c0,0,0.1,0,0.1,0c0.1,0,0.2-0.1,0.3-0.1c0,0,0.1,0,0.1-0.1c0.1,0,0.1-0.1,0.2-0.1c0,0,0.1-0.1,0.1-0.1c0,0,0.1-0.1,0.1-0.1
	c0.1-0.1,0.1-0.1,0.2-0.2c0,0,0.1-0.1,0.1-0.1c0-0.1,0.1-0.1,0.1-0.2c0-0.1,0-0.1,0.1-0.2c0-0.1,0.1-0.1,0.1-0.2c0-0.1,0-0.1,0-0.2
	c0-0.1,0-0.2,0-0.2c0,0,0-0.1,0-0.1V663.3l30.9-114.5l88.3-17.2l77.4,53.1c0,0,0,0,0,0c0,0,0.1,0,0.1,0c0.1,0.1,0.2,0.1,0.4,0.2
	l92.4,32.3l29.5,40.8c0.4,0.5,1,0.8,1.7,0.8l40.4-1.8c0.7,0,1.3-0.4,1.7-1c0.3-0.6,0.3-1.3,0-1.9l-21.2-38.7l28.3,38.2
	c0.6,0.8,1.6,1,2.5,0.6l39.5-19.3c0.5-0.3,0.9-0.7,1.1-1.3l16.7-67.7C882.1,565.5,882,565,881.7,564.5z M872.1,555.8L856,583.7
	l-76.6,5.2L755,543.6l49.5-87.2l13.5,6.2L872.1,555.8z M324.7,480.8l3,42.3L150.4,630.6l-3.8-86.6l22.1-43.5l0,0l30.8-60.7
	L324.7,480.8z M201.3,436.2l29.2-57.6l80.7-86.2l13.1,184L201.3,436.2z M315.1,290.6l128.6,43.8L427,384.8c0,0.1,0,0.1,0,0.2
	c0,0.1,0,0.1,0,0.2c0,0.1,0,0.1,0,0.2c0,0.1,0,0.1,0,0.2c0,0,0,0.1,0,0.1c0,0.1,0,0.2,0,0.3c0,0,0,0.1,0,0.1c0,0.1,0.1,0.2,0.1,0.2
	c0,0,0,0,0,0l12.3,23L328.3,476L315.1,290.6z M480.1,224.8L445,330.7l-128.5-43.8l19.8-21.2L442,195.5L480.1,224.8z M447.3,194.5
	l52.6-5.5l48.4,35.1l-33.2,22.7L447.3,194.5z M432.5,387.9l123,16.1l-72.7,78.2L432.5,387.9z M431.6,383.8l51.9-156.3l48.1,37.1
	l25.6,135.7L431.6,383.8z M536.4,268.2l79.1,61L601.9,406l-40.6-5.3L536.4,268.2z M619,331.9l27.2,20.8c0.3,0.3,0.8,0.4,1.2,0.4
	h41.9l45.2,69.9l-63.2,80.2l-65.6-95.5L619,331.9z M622.7,329.7l47.5-6.2l16.6,25.7h-38.6L622.7,329.7z M737.6,425.7l63.4,29
	l-49,86.3l-77.6-35.1L737.6,425.7z M812.4,455.5l-73.5-33.7l-4.7-61.1L812.4,455.5z M729.7,355.3l4.6,60.2L673,320.5l-12.4-75.9
	L729.7,355.3z M655.3,236.5l13.5,83l-50.7,6.7l-99.7-76.9l34.5-23.6c0.1,0,0.1-0.1,0.1-0.1c0,0,0.1-0.1,0.1-0.1
	c0.1-0.1,0.1-0.2,0.2-0.2c0,0,0.1-0.1,0.1-0.1c0.1-0.1,0.1-0.2,0.2-0.4c0,0,0,0,0,0l11.5-30L655.3,236.5z M604.9,48.5L594,91.3
	l-39.1,13.8L604.9,48.5z M550.1,111l42.5-15l-30.4,95.4L550.9,221l-15.3-11.1L550.1,111z M516.9,156.5c0.4,0.5,1,0.7,1.6,0.7
	c0.6,0,1.2-0.4,1.5-0.9l24.9-38.1l-13.1,89l-29.8-21.6l-34.4-86.7L516.9,156.5z M460.7,92.1l36.9,93.1l-55.3,5.8L386,169.4
	L460.7,92.1z M382,172.2l55.7,21.3l-103.8,69c-0.1,0.1-0.2,0.2-0.4,0.3l-2.2,2.4l10-93.8L382,172.2z M285.6,170.4l51.7,0.9
	l-10.4,98.1L245.1,297L285.6,170.4z M242.8,302l79-26.7l-92.3,98.5l-21.6-51.8L242.8,302z M204.4,324.1l21.2,50.7l-83.1-15.1
	L204.4,324.1z M138.3,363.1l87.6,15.9l-58.6,115.5l-35-103.5L138.3,363.1z M130.7,398.7l34.1,100.8l-20.5,40.4l-34.4-44.2
	L130.7,398.7z M22.5,579.2l85.1-80.1l34.6,44.6l-13.2,19.2L35,604.2L22.5,579.2z M36.8,607.8l87.8-38.7l-62.2,90L36.8,607.8z
	 M64.3,663.5l78.6-113.9l3.7,84.2L95.7,798.6L64.3,663.5z M98.1,804.6l26.5-85.9l98.9,104.6L98.1,804.6z M125.9,714.3l24.3-78.9
	l178.3-108l51.6,194.6l-151,101.5L125.9,714.3z M234.3,824.9l147.4-99.1l65.1,130.7L234.3,824.9z M448.3,850.5l-63.4-127.2
	l63.4-55.8V850.5z M448.5,662l-65,57.2l-51-192.5l146.6,22.1L448.5,662z M481.5,545.1l-149.9-22.6l-3-42.1l112.7-67.6l39.4,73.7
	c0,0,0,0,0,0c0.1,0.2,0.2,0.3,0.3,0.4c0,0,0,0,0,0c0.1,0.1,0.3,0.2,0.5,0.3c0,0,0,0,0,0l84.2,41.3L481.5,545.1z M485.8,485
	l74.7-80.3l42,5.5l65.4,95.2l-95.6,22L485.8,485z M576.9,530.4l94.1-21.7l76.6,34.7l-97.2,37.4L576.9,530.4z M655.9,583l95.9-36.9
	l23.8,44.3l-32.8,23L655.9,583z M810,653.3l-36.1,1.6l-28-38.8l31.6-22.2L810,653.3z M861.6,631.8L824.5,650L782,592.8l75.3-5.1
	c0.7,0,1.3-0.4,1.6-1l15.5-26.8l3.5,6L861.6,631.8z"/>
</svg>
